<?xml version="1.0" encoding="utf-8"?>
<!-- Generator: Adobe Illustrator 17.0.0, SVG Export Plug-In . SVG Version: 6.00 Build 0)  -->
<!DOCTYPE svg PUBLIC "-//W3C//DTD SVG 1.1//EN" "http://www.w3.org/Graphics/SVG/1.1/DTD/svg11.dtd">
<svg version="1.1" xmlns="http://www.w3.org/2000/svg" xmlns:xlink="http://www.w3.org/1999/xlink" x="0px" y="0px"
	 width="408.51px" height="79.945px" viewBox="0 0 408.51 79.945" enable-background="new 0 0 408.51 79.945" xml:space="preserve">
<symbol  id="Paquete_de_vectores:_florido_04" viewBox="-199.404 5.108 164.206 3.684">
	<path fill="#FFFFFF" d="M-51.847,8.707c0.553-1.283,1.379-2.603,1.996-3.512c2.726,0.115,5.028,0.248,6.973,0.391
		c-0.433,1.019-0.561,1.986-0.581,2.697c-2.162,0.152-4.746,0.292-7.829,0.405C-51.474,8.694-51.661,8.7-51.847,8.707z
		 M-42.792,5.796c6.077,0.545,7.58,1.133,7.593,1.137h0.001h-0.001c-0.013,0.005-1.582,0.617-7.991,1.172
		C-43.257,7.145-43.03,6.345-42.792,5.796z M-50.034,5.118c-1.035,1.26-1.649,2.785-1.947,3.674
		c-13.455-0.051-25.975-2.387-52.236-0.311c0,0-23.682-1.289-95.1-1.532h-0.043h-0.044h0.087c71.418-0.242,95.1-1.531,95.1-1.531
		C-76.695,7.595-64.266,4.925-50.034,5.118z"/>
</symbol>
<g id="Nombre">
	<g>
		<path fill="#FFFFFF" d="M161.193,75.463c-0.576,0.288-1.729,0.576-3.205,0.576c-3.421,0-5.996-2.161-5.996-6.14
			c0-3.799,2.575-6.374,6.338-6.374c1.512,0,2.466,0.324,2.881,0.54l-0.378,1.278c-0.594-0.288-1.44-0.504-2.449-0.504
			c-2.845,0-4.735,1.819-4.735,5.006c0,2.971,1.71,4.879,4.664,4.879c0.954,0,1.926-0.198,2.557-0.504L161.193,75.463z"/>
		<path fill="#FFFFFF" d="M163.783,71.79c0.036,2.143,1.404,3.025,2.989,3.025c1.134,0,1.818-0.198,2.413-0.45l0.27,1.134
			c-0.558,0.252-1.512,0.541-2.898,0.541c-2.683,0-4.286-1.765-4.286-4.394c0-2.628,1.548-4.699,4.087-4.699
			c2.845,0,3.601,2.502,3.601,4.105c0,0.324-0.036,0.576-0.054,0.738H163.783z M168.428,70.656c0.018-1.008-0.414-2.575-2.196-2.575
			c-1.603,0-2.305,1.477-2.431,2.575H168.428z"/>
		<path fill="#FFFFFF" d="M171.918,69.503c0-0.9-0.018-1.638-0.072-2.359h1.405l0.09,1.44h0.036c0.432-0.828,1.44-1.638,2.881-1.638
			c1.206,0,3.079,0.72,3.079,3.709v5.204h-1.584v-5.023c0-1.404-0.522-2.575-2.017-2.575c-1.044,0-1.854,0.738-2.125,1.621
			c-0.072,0.198-0.108,0.468-0.108,0.738v5.24h-1.584V69.503z"/>
		<path fill="#FFFFFF" d="M186.733,75.859l-0.126-1.098h-0.054c-0.486,0.684-1.422,1.296-2.665,1.296
			c-1.765,0-2.665-1.243-2.665-2.503c0-2.106,1.873-3.259,5.239-3.241v-0.18c0-0.72-0.198-2.017-1.98-2.017
			c-0.81,0-1.656,0.252-2.269,0.648l-0.36-1.044c0.72-0.468,1.765-0.774,2.863-0.774c2.665,0,3.313,1.818,3.313,3.565v3.259
			c0,0.756,0.036,1.495,0.144,2.089H186.733z M186.5,71.412c-1.729-0.036-3.691,0.27-3.691,1.962c0,1.026,0.684,1.513,1.494,1.513
			c1.134,0,1.854-0.72,2.107-1.458c0.054-0.162,0.09-0.342,0.09-0.504V71.412z"/>
		<path fill="#FFFFFF" d="M198.111,63.076v10.533c0,0.774,0.018,1.656,0.072,2.25h-1.422l-0.072-1.513h-0.036
			c-0.486,0.973-1.548,1.711-2.971,1.711c-2.106,0-3.727-1.783-3.727-4.43c-0.018-2.898,1.783-4.681,3.907-4.681
			c1.333,0,2.233,0.63,2.629,1.333h0.036v-5.204H198.111z M196.526,70.692c0-0.198-0.018-0.468-0.072-0.667
			c-0.234-1.008-1.098-1.836-2.287-1.836c-1.639,0-2.611,1.44-2.611,3.367c0,1.765,0.864,3.223,2.575,3.223
			c1.062,0,2.035-0.703,2.323-1.891c0.054-0.216,0.072-0.432,0.072-0.685V70.692z"/>
		<path fill="#FFFFFF" d="M208.028,73.482c0,0.9,0.018,1.693,0.072,2.377h-1.405l-0.09-1.422h-0.036
			c-0.414,0.702-1.332,1.621-2.881,1.621c-1.368,0-3.007-0.756-3.007-3.817v-5.096h1.584v4.826c0,1.657,0.504,2.773,1.945,2.773
			c1.062,0,1.8-0.738,2.088-1.44c0.09-0.234,0.144-0.522,0.144-0.811v-5.348h1.584V73.482z"/>
		<path fill="#FFFFFF" d="M210.654,69.864c0-1.026-0.018-1.909-0.072-2.719h1.387l0.054,1.711h0.072
			c0.396-1.17,1.35-1.909,2.413-1.909c0.18,0,0.306,0.018,0.45,0.054v1.494c-0.162-0.036-0.324-0.054-0.54-0.054
			c-1.116,0-1.909,0.846-2.125,2.034c-0.036,0.216-0.072,0.468-0.072,0.738v4.646h-1.566V69.864z"/>
		<path fill="#FFFFFF" d="M218.376,64.696c0.018,0.54-0.378,0.972-1.008,0.972c-0.558,0-0.955-0.432-0.955-0.972
			c0-0.559,0.414-0.991,0.99-0.991C217.998,63.706,218.376,64.138,218.376,64.696z M216.612,75.859v-8.715h1.584v8.715H216.612z"/>
		<path fill="#FFFFFF" d="M225.649,75.859l-0.126-1.098h-0.054c-0.486,0.684-1.423,1.296-2.665,1.296
			c-1.765,0-2.665-1.243-2.665-2.503c0-2.106,1.873-3.259,5.239-3.241v-0.18c0-0.72-0.198-2.017-1.98-2.017
			c-0.81,0-1.657,0.252-2.269,0.648l-0.36-1.044c0.72-0.468,1.765-0.774,2.863-0.774c2.665,0,3.313,1.818,3.313,3.565v3.259
			c0,0.756,0.036,1.495,0.144,2.089H225.649z M225.415,71.412c-1.729-0.036-3.691,0.27-3.691,1.962c0,1.026,0.684,1.513,1.494,1.513
			c1.134,0,1.854-0.72,2.107-1.458c0.054-0.162,0.09-0.342,0.09-0.504V71.412z"/>
	</g>
	<g>
		<path fill="#FFFFFF" d="M36.25,8.921c0.156,0.098,0.234,0.215,0.234,0.352c0,0.157-0.137,0.234-0.41,0.234
			c-0.333,0.04-0.708,0.093-1.128,0.161c-0.42,0.069-0.864,0.21-1.333,0.425c-0.82,0.371-1.446,0.801-1.875,1.289
			c-0.547,0.605-0.82,1.309-0.82,2.109c0,0.664,0.122,1.211,0.366,1.641c0.244,0.43,0.59,0.645,1.04,0.645
			c0.488,0,0.859-0.105,1.113-0.314c0.117-0.095,0.253-0.295,0.41-0.6c0.098-0.171,0.224-0.257,0.381-0.257
			c0.117,0,0.264,0.083,0.439,0.248c0.176,0.166,0.327,0.461,0.454,0.889c0.127,0.427,0.19,0.875,0.19,1.34
			c0,0.854-0.356,1.525-1.069,2.01c-0.713,0.486-1.567,0.729-2.563,0.729c-1.426,0-2.5-0.479-3.223-1.436
			c-0.547-0.722-0.82-1.553-0.82-2.49c0-1.973,0.708-3.677,2.124-5.112c1.416-1.436,3.071-2.153,4.966-2.153
			C35.41,8.628,35.917,8.726,36.25,8.921z M46.562,8.921c0.156,0.117,0.234,0.215,0.234,0.293c0,0.137-0.117,0.234-0.352,0.293
			c-0.488,0.059-0.938,0.122-1.348,0.19c-0.41,0.069-0.801,0.201-1.172,0.396c-0.82,0.371-1.446,0.801-1.875,1.289
			c-0.547,0.605-0.82,1.309-0.82,2.109c0,0.664,0.122,1.211,0.366,1.641c0.244,0.43,0.59,0.645,1.04,0.645
			c0.469,0,0.82-0.095,1.055-0.286c0.136-0.114,0.259-0.291,0.366-0.529c0.107-0.238,0.249-0.357,0.425-0.357
			c0.136,0,0.264,0.068,0.381,0.204c0.215,0.272,0.396,0.612,0.542,1.02s0.22,0.825,0.22,1.253c0,0.854-0.356,1.525-1.069,2.01
			c-0.713,0.486-1.567,0.729-2.563,0.729c-1.426,0-2.5-0.479-3.223-1.436c-0.547-0.722-0.82-1.553-0.82-2.49
			c0-1.973,0.708-3.677,2.124-5.112c1.416-1.436,3.071-2.153,4.966-2.153C45.722,8.628,46.229,8.726,46.562,8.921z"/>
		<path fill="#FFFFFF" d="M87.402,28.726c0,4.863-1.543,9.111-4.629,12.744c-2.734,3.223-6.436,5.732-11.104,7.529
			c-4.238,1.641-8.643,2.461-13.213,2.461c-0.176,0-0.312,0-0.41,0c-0.234,0-0.503-0.005-0.806-0.015
			c-0.303-0.01-0.454-0.103-0.454-0.278c0-0.117,0.127-0.292,0.381-0.526c1.152-0.956,2.017-2.223,2.593-3.802
			c0.576-1.579,0.864-3.607,0.864-6.084v-7.137c-3.271-0.352-5.836-1.457-7.697-3.314c-2.076-2.072-3.114-4.957-3.114-8.653
			c0-3.774,1.789-6.922,5.365-9.445c3.382-2.385,7.281-3.578,11.699-3.578c5.805,0,10.624,1.768,14.455,5.303
			C85.378,17.662,87.402,22.593,87.402,28.726z M83.242,27.219c0-4.703-1.484-8.646-4.453-11.827
			c-3.086-3.317-7.051-4.977-11.895-4.977c-3.907,0-7.295,0.986-10.166,2.959c-3.145,2.168-4.717,4.971-4.717,8.408
			c0,3.047,0.82,5.41,2.461,7.09c1.406,1.426,3.457,2.383,6.152,2.871v-10.84c0-0.684-0.245-1.143-0.732-1.377
			c-0.234-0.078-0.45-0.156-0.645-0.234c-0.195-0.078-0.293-0.215-0.293-0.41c0-0.136,0.068-0.244,0.205-0.322
			c0.136-0.078,0.546-0.253,1.23-0.527c0.684-0.273,1.387-0.586,2.109-0.938c0.546-0.273,1.357-0.713,2.432-1.318
			c0.352-0.195,0.634-0.341,0.85-0.439c0.312-0.117,0.469-0.029,0.469,0.264c0,0.117-0.02,0.205-0.059,0.264
			c-0.469,0.645-0.831,1.211-1.084,1.699c-0.254,0.488-0.381,0.938-0.381,1.348v12.598c1.23,0,2.607-0.615,4.131-1.846
			c1.699-1.387,2.549-2.842,2.549-4.365c0-0.625-0.127-1.143-0.381-1.553s-0.576-0.615-0.967-0.615c-0.43,0-0.767,0.044-1.011,0.132
			s-0.396,0.201-0.454,0.337c-0.117,0.254-0.234,0.381-0.352,0.381c-0.098,0-0.176-0.088-0.234-0.264
			c-0.02-0.078-0.029-0.215-0.029-0.41c0-0.176,0.029-0.352,0.088-0.527c0.449-1.328,1.387-1.992,2.812-1.992
			c1.094,0,1.934,0.41,2.52,1.23c0.508,0.723,0.762,1.66,0.762,2.812c0,1.934-0.991,3.779-2.974,5.537
			c-1.982,1.758-4.136,2.783-6.46,3.076v6.784c0,1.735-0.269,3.393-0.806,4.972c-0.538,1.579-1.245,2.904-2.124,3.977
			c3.496,0,6.836-0.839,10.02-2.518c3.379-1.795,6.074-4.274,8.086-7.436C82.128,35.709,83.242,31.708,83.242,27.219z"/>
		<path fill="#FFFFFF" d="M122.5,36.694c0,4.102-1.504,7.607-4.512,10.518c-2.93,2.832-6.387,4.248-10.371,4.248
			c-4.199,0-7.739-1.46-10.62-4.38c-2.881-2.919-4.321-6.479-4.321-10.679c0-4.082,1.47-7.573,4.409-10.474s6.47-4.351,10.591-4.351
			c4.141,0,7.646,1.475,10.518,4.424C121.064,28.95,122.5,32.515,122.5,36.694z M119.98,37.983c0-3.223-1.484-6.289-4.453-9.199
			c-3.066-3.007-6.426-4.512-10.078-4.512c-2.852,0-5.273,0.977-7.266,2.93c-1.992,1.953-2.988,4.258-2.988,6.914
			c0,3.848,1.514,7.266,4.541,10.254c2.969,2.93,6.24,4.395,9.814,4.395c2.832,0,5.234-0.918,7.207-2.754
			C118.906,44,119.98,41.323,119.98,37.983z"/>
		<path fill="#FFFFFF" d="M153.32,32.546c0,2.894-0.508,5.666-1.523,8.315s-2.52,5.098-4.512,7.347c0.059,0,0.161,0.005,0.308,0.015
			c0.146,0.01,0.347,0.015,0.601,0.015c0.605,0,1.172-0.034,1.699-0.103c0.527-0.068,1.045-0.268,1.553-0.601
			c0.508-0.41,0.84-0.674,0.996-0.791c0.039-0.039,0.098-0.068,0.176-0.088c0.059-0.019,0.098-0.029,0.117-0.029
			c0.215,0,0.273,0.175,0.176,0.524c-0.039,0.292-0.078,0.641-0.117,1.048c-0.039,0.408-0.059,0.68-0.059,0.816
			c0,0.291,0.01,0.597,0.029,0.917c0.02,0.32,0.049,0.655,0.088,1.005c0.078,0.388,0,0.582-0.234,0.582
			c-0.098,0-0.195-0.039-0.293-0.114c-0.586-0.324-0.996-0.534-1.23-0.629c-0.449-0.171-0.874-0.286-1.274-0.343
			s-1.021-0.086-1.86-0.086c-0.566,0-1.016,0.009-1.348,0.025s-0.771,0.067-1.318,0.15c-0.566,0.098-0.85-0.078-0.85-0.527
			c0-0.136,0.029-0.253,0.088-0.352c1.055-1.641,1.875-2.998,2.461-4.072c0.918-1.699,1.602-3.281,2.051-4.746
			c0.547-1.797,0.82-3.623,0.82-5.479c0-3.066-0.684-5.556-2.051-7.471c-1.426-2.011-3.359-3.018-5.801-3.018
			c-1.641,0-3.115,0.458-4.424,1.375c-1.172,0.819-2.139,1.961-2.9,3.424v17.966c0,0.351,0.218,0.712,0.653,1.083
			c0.377,0.318,0.753,0.626,1.129,0.923c0.218,0.218,0.327,0.417,0.327,0.596c0,0.199-0.167,0.297-0.5,0.297
			c-0.098,0-0.539-0.029-1.323-0.088s-1.5-0.088-2.146-0.088c-0.745,0-1.338,0.02-1.779,0.059c-0.44,0.04-0.945,0.078-1.514,0.117
			c-0.471,0-0.706-0.109-0.706-0.328c0-0.139,0.088-0.308,0.264-0.507c0.176-0.199,0.459-0.458,0.85-0.776
			c0.664-0.507,0.996-0.936,0.996-1.288V30.298c0-1.658-0.498-3.004-1.494-4.038c-0.43-0.449-1.182-0.957-2.256-1.522
			c-0.156-0.078-0.234-0.185-0.234-0.322c0-0.136,0.059-0.263,0.176-0.38c0.254-0.234,0.469-0.424,0.645-0.57s0.4-0.356,0.674-0.629
			c0.273-0.273,0.488-0.497,0.645-0.673s0.303-0.351,0.439-0.527c0.078-0.098,0.186-0.146,0.322-0.146
			c0.117,0,0.205,0.029,0.264,0.088c0.703,0.567,1.445,1.358,2.227,2.373c1.074,1.387,1.699,2.588,1.875,3.604
			c0.859-1.406,1.904-2.626,3.135-3.662c1.836-1.542,3.701-2.314,5.596-2.314c3.516,0,6.221,1.32,8.115,3.959
			C152.568,27.629,153.32,29.965,153.32,32.546z M149.716,12.862c-0.273,1.28-0.82,2.451-1.641,3.514
			c-0.977,1.28-2.051,1.919-3.223,1.919c-1.367,0-2.9-0.762-4.6-2.285s-2.744-2.285-3.135-2.285c-0.84,0-1.519,0.43-2.036,1.291
			c-0.518,0.86-0.776,1.954-0.776,3.279l-2.168-2.008c0.43-1.338,0.996-2.48,1.699-3.425c0.957-1.299,2.012-1.949,3.164-1.949
			c1.133,0,2.275,0.479,3.428,1.436c2.5,2.09,3.936,3.135,4.307,3.135c0.84,0,1.519-0.43,2.036-1.291
			c0.518-0.86,0.776-1.954,0.776-3.279L149.716,12.862z"/>
		<path fill="#FFFFFF" d="M186.894,49.761c0.137,0.215,0.205,0.371,0.205,0.469c0,0.195-0.146,0.293-0.439,0.293
			c-0.078,0-0.4-0.029-0.967-0.088s-1.104-0.088-1.611-0.088c-0.352,0-0.742,0.029-1.172,0.088s-0.684,0.088-0.762,0.088
			c-0.449,0-0.674-0.107-0.674-0.322c0-0.078,0.049-0.186,0.146-0.322c0.176-0.253,0.317-0.522,0.425-0.806
			c0.107-0.283,0.161-0.601,0.161-0.952l-0.176-2.812c-0.762,1.602-2.021,2.999-3.779,4.189c-1.953,1.308-3.994,1.963-6.123,1.963
			c-3.008,0-5.547-0.889-7.617-2.666c-2.188-1.875-3.281-4.307-3.281-7.295c0-3.007,1.191-5.527,3.574-7.559
			c2.285-1.953,5.02-2.93,8.203-2.93c1.543,0,3.022,0.303,4.438,0.908c1.416,0.605,2.495,1.338,3.237,2.197
			c0-0.859-0.498-2.139-1.494-3.838c-1.172-2.011-2.549-3.662-4.131-4.951c-1.992-1.641-4.043-2.461-6.152-2.461
			c-1.309,0-2.432,0.274-3.369,0.82c-1.074,0.625-1.611,1.484-1.611,2.578c0,0.625,0.161,1.143,0.483,1.553s0.767,0.615,1.333,0.615
			c0.391,0,0.732-0.127,1.025-0.381c0.293-0.253,0.439-0.557,0.439-0.908c0-0.253-0.034-0.502-0.103-0.747
			c-0.068-0.244-0.132-0.464-0.19-0.659c-0.059-0.136-0.049-0.224,0.029-0.264c0.039-0.019,0.166-0.029,0.381-0.029
			c0.547,0.059,1.045,0.312,1.494,0.762c0.449,0.45,0.674,0.957,0.674,1.523c0,0.918-0.366,1.685-1.099,2.3
			s-1.577,0.923-2.534,0.923c-1.133,0-2.07-0.381-2.812-1.143s-1.113-1.787-1.113-3.076c0-1.68,0.889-2.988,2.666-3.926
			c1.562-0.82,3.447-1.23,5.654-1.23c2.168,0,4.307,0.688,6.416,2.065s3.818,3.248,5.127,5.61c0.918,1.66,1.65,3.721,2.197,6.182
			c0.352,1.563,0.684,3.706,0.996,6.431s0.576,4.595,0.791,5.61c0.098,0.508,0.283,0.996,0.557,1.465
			C186.63,49.37,186.816,49.644,186.894,49.761z M181.914,40.386c0-2.207-0.815-3.97-2.446-5.288s-3.765-1.978-6.401-1.978
			c-2.148,0-4.023,0.703-5.625,2.109s-2.402,3.145-2.402,5.215c0,2.208,0.815,4.068,2.446,5.581
			c1.631,1.514,3.569,2.271,5.815,2.271c2.598,0,4.683-0.737,6.255-2.212C181.127,44.609,181.914,42.71,181.914,40.386z"/>
		<path fill="#FFFFFF" d="M244.609,16.421c0,1.66-0.513,3.096-1.538,4.307c-1.025,1.211-2.583,2.314-4.673,3.311
			c-1.562,0.743-3.409,1.348-5.537,1.816c-1.113,0.234-2.994,0.557-5.64,0.967c-2.647,0.41-4.566,0.772-5.757,1.084
			c-2.013,0.547-3.956,1.523-5.831,2.93c-1.562,1.191-2.822,2.48-3.779,3.867c0.604,3.516,2.322,6.68,5.15,9.492
			c3.142,3.125,6.672,4.688,10.594,4.688c2.81,0,5.18-0.537,7.111-1.611c1.932-1.074,2.897-2.49,2.897-4.248
			c0-0.566-0.063-1.059-0.19-1.479c-0.127-0.42-0.239-0.786-0.337-1.099c-0.059-0.117-0.059-0.215,0-0.293
			c0.059-0.078,0.176-0.117,0.352-0.117c0.532,0.078,1.046,0.352,1.54,0.82c0.672,0.645,1.009,1.426,1.009,2.344
			c0,2.48-1.426,4.512-4.277,6.094c-2.598,1.445-5.664,2.168-9.199,2.168c-5.684,0-10.303-1.973-13.857-5.918
			c-3.613-4.003-5.42-9.238-5.42-15.703c0-5.723,1.873-10.664,5.619-14.824c3.844-4.258,8.526-6.387,14.048-6.387
			c2.439,0,4.526,0.469,6.264,1.406c1.951,1.055,2.927,2.461,2.927,4.219c0,0.898-0.283,1.67-0.85,2.314s-1.338,1.045-2.314,1.201
			c-0.078,0.02-0.176,0.029-0.293,0.029c-0.156,0-0.264,0-0.322,0c-0.391,0-0.732-0.034-1.025-0.103
			c-0.293-0.068-0.547-0.18-0.762-0.337c-0.176-0.078-0.264-0.176-0.264-0.293s0.088-0.234,0.264-0.352
			c0.391-0.273,0.654-0.498,0.791-0.674c0.332-0.41,0.537-0.927,0.615-1.553c0.02-0.078,0.029-0.146,0.029-0.205
			c0-0.098,0-0.166,0-0.205c0-1.074-0.673-1.923-2.019-2.549c-1.132-0.527-2.419-0.791-3.862-0.791
			c-2.242,0-4.306,0.464-6.188,1.392c-1.882,0.928-3.545,2.281-4.988,4.058c-1.346,1.66-2.321,3.56-2.925,5.698
			c-0.605,2.139-0.907,4.487-0.907,7.046c0,0.508,0.015,1.06,0.044,1.655c0.029,0.596,0.083,1.265,0.161,2.007
			c0.723-1.015,1.836-2.187,3.34-3.516c2.012-1.777,3.906-3.007,5.684-3.691c1.543-0.586,3.135-1.035,4.775-1.348
			c0.918-0.176,2.48-0.4,4.688-0.674c2.207-0.273,3.975-0.537,5.303-0.791c2.148-0.41,3.789-0.908,4.922-1.494
			c1.758-0.918,2.637-2.119,2.637-3.604c0-1.015-0.293-1.699-0.879-2.051c-0.156-0.117-0.43-0.176-0.82-0.176
			c-0.234,0-0.41,0.04-0.527,0.117c-0.215,0.176-0.381,0.264-0.498,0.264c-0.098,0-0.146-0.098-0.146-0.293
			c0-0.019,0.034-0.186,0.103-0.498c0.068-0.312,0.308-0.634,0.718-0.967c0.41-0.332,0.879-0.498,1.406-0.498
			c0.82,0,1.465,0.308,1.934,0.923S244.609,15.62,244.609,16.421z"/>
		<path fill="#FFFFFF" d="M256.562,49.6c0.234,0.23,0.352,0.422,0.352,0.576c0,0.231-0.215,0.346-0.645,0.346
			c-0.352,0-0.645-0.011-0.879-0.034c-1.211-0.114-2.012-0.171-2.402-0.171c-0.703,0-1.274,0.023-1.714,0.069
			c-0.439,0.045-0.942,0.091-1.509,0.136c-0.469,0-0.703-0.119-0.703-0.357c0-0.119,0.098-0.298,0.293-0.536
			c0.488-0.397,0.85-0.705,1.084-0.923c0.449-0.39,0.674-0.751,0.674-1.083V16.302c0-0.566-0.02-1.015-0.059-1.347
			c-0.039-0.332-0.273-0.468-0.703-0.41c-0.215,0.04-0.576,0.23-1.084,0.571c-0.508,0.342-0.85,0.542-1.025,0.601
			c-0.293,0.098-0.439-0.01-0.439-0.324c0-0.098,0.059-0.235,0.176-0.412c0.117-0.176,0.654-0.725,1.611-1.647
			c0.762-0.745,1.367-1.342,1.816-1.793c0.664-0.667,1.387-1.46,2.168-2.382c0.547-0.646,0.898-1.029,1.055-1.146
			c0.039-0.04,0.098-0.069,0.176-0.088c0.059-0.019,0.107-0.029,0.146-0.029c0.176,0,0.264,0.157,0.264,0.469
			c-0.098,0.626-0.181,1.403-0.249,2.333c-0.068,0.93-0.103,1.912-0.103,2.949v34.033c0,0.313,0.205,0.655,0.615,1.027
			C255.83,49.014,256.191,49.312,256.562,49.6z"/>
		<path fill="#FFFFFF" d="M290.371,44.312c-0.508,1.66-1.729,3.213-3.662,4.658c-2.266,1.699-4.736,2.549-7.412,2.549
			c-1.719,0-3.242-0.186-4.57-0.557c-1.523-0.43-2.969-1.162-4.336-2.197c-0.547,0.684-1.045,1.426-1.494,2.227
			c-0.566,0.996-0.85,1.718-0.85,2.168c0,0.546,0.146,0.927,0.439,1.143c0.195,0.136,0.518,0.205,0.967,0.205
			c0.137,0,0.273-0.02,0.41-0.059c0.117-0.04,0.234-0.078,0.352-0.117c0.078-0.04,0.146-0.04,0.205,0
			c0.137,0.078,0.166,0.234,0.088,0.469c-0.117,0.469-0.352,0.898-0.703,1.289c-0.469,0.508-1.016,0.762-1.641,0.762
			c-0.664,0-1.211-0.245-1.641-0.732c-0.43-0.488-0.645-1.124-0.645-1.904c0-0.625,0.215-1.387,0.645-2.285
			c0.117-0.254,0.957-1.641,2.52-4.16c-1.445-1.484-2.559-3.095-3.34-4.834c-0.859-1.934-1.289-4.014-1.289-6.24
			c0-4.102,1.333-7.646,3.999-10.635s5.981-4.482,9.946-4.482c1.582,0,3.203,0.381,4.863,1.143c0.918,0.45,1.836,0.889,2.754,1.318
			c0.176,0.078,0.43,0.137,0.762,0.176c0.332,0.04,0.664,0.059,0.996,0.059l0.879-0.059c0.215,0,0.322,0.088,0.322,0.264
			c0,0.137-0.068,0.245-0.205,0.322c-0.312,0.195-0.654,0.459-1.025,0.791c-0.508,0.43-0.947,0.869-1.318,1.318
			c-1.895,2.109-4.092,4.874-6.592,8.291c-2.5,3.418-4.854,6.846-7.061,10.283c1.152,0.82,2.324,1.455,3.516,1.904
			c1.406,0.527,2.871,0.791,4.395,0.791c2.109,0,3.848-0.4,5.215-1.201c0.996-0.586,2.109-1.63,3.34-3.135
			c0.117-0.176,0.254-0.366,0.41-0.571s0.332-0.288,0.527-0.249c0.254,0.059,0.381,0.245,0.381,0.557
			C290.517,43.814,290.468,44.058,290.371,44.312z M282.343,27.026c0-1.152-0.625-2.051-1.875-2.695
			c-1.055-0.546-2.324-0.82-3.809-0.82c-2.773,0-5.059,1.182-6.855,3.545c-1.68,2.227-2.52,4.874-2.52,7.939
			c0,1.816,0.439,3.633,1.318,5.449c0.742,1.543,1.67,2.852,2.783,3.926c1.328-1.973,2.363-3.505,3.105-4.6
			c1.191-1.758,2.207-3.232,3.047-4.424c1.074-1.523,2.148-3.047,3.223-4.57C281.816,29.136,282.343,27.886,282.343,27.026z"/>
		<path fill="#FFFFFF" d="M319.375,32.546c0,2.894-0.508,5.666-1.523,8.315s-2.52,5.098-4.512,7.347
			c0.059,0,0.161,0.005,0.308,0.015c0.146,0.01,0.347,0.015,0.601,0.015c0.605,0,1.172-0.034,1.699-0.103
			c0.527-0.068,1.045-0.268,1.553-0.601c0.508-0.41,0.84-0.674,0.996-0.791c0.039-0.039,0.098-0.068,0.176-0.088
			c0.059-0.019,0.098-0.029,0.117-0.029c0.215,0,0.273,0.175,0.176,0.524c-0.039,0.292-0.078,0.641-0.117,1.048
			c-0.039,0.408-0.059,0.68-0.059,0.816c0,0.291,0.01,0.597,0.029,0.917c0.02,0.32,0.049,0.655,0.088,1.005
			c0.078,0.388,0,0.582-0.234,0.582c-0.098,0-0.195-0.039-0.293-0.114c-0.586-0.324-0.996-0.534-1.23-0.629
			c-0.449-0.171-0.874-0.286-1.274-0.343s-1.021-0.086-1.86-0.086c-0.566,0-1.016,0.009-1.348,0.025s-0.771,0.067-1.318,0.15
			c-0.566,0.098-0.85-0.078-0.85-0.527c0-0.136,0.029-0.253,0.088-0.352c1.055-1.641,1.875-2.998,2.461-4.072
			c0.918-1.699,1.602-3.281,2.051-4.746c0.547-1.797,0.82-3.623,0.82-5.479c0-3.066-0.684-5.556-2.051-7.471
			c-1.426-2.011-3.359-3.018-5.801-3.018c-1.641,0-3.115,0.458-4.424,1.375c-1.172,0.819-2.139,1.961-2.9,3.424v17.966
			c0,0.351,0.218,0.712,0.653,1.083c0.377,0.318,0.753,0.626,1.129,0.923c0.218,0.218,0.327,0.417,0.327,0.596
			c0,0.199-0.167,0.297-0.5,0.297c-0.098,0-0.539-0.029-1.323-0.088s-1.5-0.088-2.146-0.088c-0.745,0-1.338,0.02-1.779,0.059
			c-0.44,0.04-0.945,0.078-1.514,0.117c-0.471,0-0.706-0.109-0.706-0.328c0-0.139,0.088-0.308,0.264-0.507
			c0.176-0.199,0.459-0.458,0.85-0.776c0.664-0.507,0.996-0.936,0.996-1.288V30.298c0-1.658-0.498-3.004-1.494-4.038
			c-0.43-0.449-1.182-0.957-2.256-1.522c-0.156-0.078-0.234-0.185-0.234-0.322c0-0.136,0.059-0.263,0.176-0.38
			c0.254-0.234,0.469-0.424,0.645-0.57s0.4-0.356,0.674-0.629c0.273-0.273,0.488-0.497,0.645-0.673s0.303-0.351,0.439-0.527
			c0.078-0.098,0.186-0.146,0.322-0.146c0.117,0,0.205,0.029,0.264,0.088c0.703,0.567,1.445,1.358,2.227,2.373
			c1.074,1.387,1.699,2.588,1.875,3.604c0.859-1.406,1.904-2.626,3.135-3.662c1.836-1.542,3.701-2.314,5.596-2.314
			c3.516,0,6.221,1.32,8.115,3.959C318.623,27.629,319.375,29.965,319.375,32.546z"/>
		<path fill="#FFFFFF" d="M352.949,49.761c0.137,0.215,0.205,0.371,0.205,0.469c0,0.195-0.146,0.293-0.439,0.293
			c-0.078,0-0.4-0.029-0.967-0.088s-1.104-0.088-1.611-0.088c-0.352,0-0.742,0.029-1.172,0.088s-0.684,0.088-0.762,0.088
			c-0.449,0-0.674-0.107-0.674-0.322c0-0.078,0.049-0.186,0.146-0.322c0.176-0.253,0.317-0.522,0.425-0.806
			c0.107-0.283,0.161-0.601,0.161-0.952l-0.176-2.812c-0.762,1.602-2.021,2.999-3.779,4.189c-1.953,1.308-3.994,1.963-6.123,1.963
			c-3.008,0-5.547-0.889-7.617-2.666c-2.188-1.875-3.281-4.307-3.281-7.295c0-3.007,1.191-5.527,3.574-7.559
			c2.285-1.953,5.02-2.93,8.203-2.93c1.543,0,3.022,0.303,4.438,0.908c1.416,0.605,2.495,1.338,3.237,2.197
			c0-0.859-0.498-2.139-1.494-3.838c-1.172-2.011-2.549-3.662-4.131-4.951c-1.992-1.641-4.043-2.461-6.152-2.461
			c-1.309,0-2.432,0.274-3.369,0.82c-1.074,0.625-1.611,1.484-1.611,2.578c0,0.625,0.161,1.143,0.483,1.553s0.767,0.615,1.333,0.615
			c0.391,0,0.732-0.127,1.025-0.381c0.293-0.253,0.439-0.557,0.439-0.908c0-0.253-0.034-0.502-0.103-0.747
			c-0.068-0.244-0.132-0.464-0.19-0.659c-0.059-0.136-0.049-0.224,0.029-0.264c0.039-0.019,0.166-0.029,0.381-0.029
			c0.547,0.059,1.045,0.312,1.494,0.762c0.449,0.45,0.674,0.957,0.674,1.523c0,0.918-0.366,1.685-1.099,2.3
			s-1.577,0.923-2.534,0.923c-1.133,0-2.07-0.381-2.812-1.143s-1.113-1.787-1.113-3.076c0-1.68,0.889-2.988,2.666-3.926
			c1.562-0.82,3.447-1.23,5.654-1.23c2.168,0,4.307,0.688,6.416,2.065s3.818,3.248,5.127,5.61c0.918,1.66,1.65,3.721,2.197,6.182
			c0.352,1.563,0.684,3.706,0.996,6.431s0.576,4.595,0.791,5.61c0.098,0.508,0.283,0.996,0.557,1.465
			C352.685,49.37,352.871,49.644,352.949,49.761z M347.968,40.386c0-2.207-0.815-3.97-2.446-5.288s-3.765-1.978-6.401-1.978
			c-2.148,0-4.023,0.703-5.625,2.109s-2.402,3.145-2.402,5.215c0,2.208,0.815,4.068,2.446,5.581
			c1.631,1.514,3.569,2.271,5.815,2.271c2.598,0,4.683-0.737,6.255-2.212C347.182,44.609,347.968,42.71,347.968,40.386z"/>
		<path fill="#FFFFFF" d="M366.015,12.554c0,1.973-0.711,3.677-2.131,5.112c-1.422,1.436-3.082,2.153-4.982,2.153
			c-0.687,0-1.195-0.098-1.529-0.293c-0.137-0.078-0.205-0.176-0.205-0.293c0-0.136,0.108-0.234,0.324-0.293
			c0.49-0.059,0.942-0.122,1.354-0.19c0.412-0.068,0.805-0.2,1.178-0.396c0.825-0.371,1.453-0.82,1.886-1.348
			c0.549-0.664,0.824-1.465,0.824-2.402c0-0.488-0.127-0.933-0.381-1.333c-0.254-0.4-0.596-0.601-1.025-0.601
			c-0.488,0-0.859,0.107-1.113,0.322c-0.117,0.098-0.239,0.264-0.366,0.498s-0.239,0.352-0.337,0.352
			c-0.117,0-0.254-0.078-0.41-0.234c-0.508-0.449-0.762-1.191-0.762-2.227c0-0.859,0.356-1.533,1.069-2.021
			c0.713-0.488,1.567-0.732,2.563-0.732c1.426,0,2.5,0.479,3.223,1.436C365.742,10.786,366.015,11.616,366.015,12.554z
			 M376.386,12.554c0,1.973-0.708,3.677-2.124,5.112s-3.071,2.153-4.966,2.153c-0.312,0-0.557-0.015-0.732-0.044
			s-0.4-0.092-0.674-0.19c-0.176-0.098-0.264-0.205-0.264-0.322c0-0.215,0.146-0.322,0.439-0.322c0.332,0,0.684-0.039,1.055-0.117
			c0.371-0.078,0.801-0.234,1.289-0.469c0.82-0.371,1.445-0.82,1.875-1.348c0.547-0.664,0.82-1.465,0.82-2.402
			c0-0.488-0.127-0.933-0.381-1.333c-0.254-0.4-0.596-0.601-1.025-0.601s-0.771,0.098-1.025,0.293
			c-0.156,0.137-0.288,0.318-0.396,0.542c-0.107,0.225-0.229,0.337-0.366,0.337s-0.283-0.078-0.439-0.234
			c-0.508-0.566-0.762-1.308-0.762-2.227c0-0.859,0.356-1.533,1.069-2.021c0.713-0.488,1.567-0.732,2.563-0.732
			c1.426,0,2.5,0.479,3.223,1.436C376.113,10.786,376.386,11.616,376.386,12.554z"/>
	</g>
</g>
<g id="Simbolo_Izq">
	
		<use xlink:href="#Paquete_de_vectores:_florido_04"  width="164.206" height="3.684" id="XMLID_1_" x="-199.404" y="5.108" transform="matrix(0.8949 0 0 -0.8949 178.4565 76.6206)" overflow="visible"/>
</g>
<g id="Simbolo_Der">
	<path fill="#FFFFFF" d="M275.031,68.831c-2.785,0.103-5.122,0.229-7.078,0.367c-0.017,0.642-0.132,1.517-0.524,2.438
		c1.758,0.129,3.84,0.249,6.305,0.353c0.558-0.822,1.303-2.015,1.804-3.176C275.368,68.819,275.201,68.825,275.031,68.831z
		 M268.778,69.341c-5.794,0.502-7.214,1.056-7.226,1.06l0,0h0c0.011,0.004,1.371,0.536,6.865,1.028
		C268.632,70.933,268.838,70.21,268.778,69.341z M322.45,71.786c0,0,21.411-1.166,85.981-1.385h0.079h-0.041h-0.038
		c-64.57-0.22-85.981-1.385-85.981-1.385c-23.742,1.878-35.06-0.235-47.227-0.281c-0.27,0.805-0.826,2.183-1.761,3.322
		C286.331,72.232,297.568,69.819,322.45,71.786z"/>
</g>
</svg>
